<svg xmlns="http://www.w3.org/2000/svg" viewBox="0 0 220 220" role="img" aria-labelledby="title desc">
  <title id="title">Aloha Fest logo</title><desc id="desc">A hibiscus flower rising over a wave and sun.</desc>
  <circle cx="110" cy="110" r="103" fill="#fff8e8" stroke="#163646" stroke-width="8"/>
  <path d="M30 135c26-28 48-30 69-7 24-31 54-28 91 7v35H30z" fill="#007f94"/>
  <path d="M30 153c26-18 47-17 68 1 25-20 56-19 92-1v17H30z" fill="#063d58"/>
  <circle cx="110" cy="77" r="30" fill="#ffb31b"/>
  <g fill="#e75745" stroke="#163646" stroke-width="3" stroke-linejoin="round">
    <path d="M110 109C78 88 65 56 82 35c15-18 35 2 28 42z"/>
    <path d="M110 109c-3-39 16-61 40-51 25 10 7 37-40 51z"/>
    <path d="M110 109c34-21 66-15 70 10 4 26-28 25-70-10z"/>
    <path d="M110 109c23 28 22 57 0 67-23 9-35-21 0-67z"/>
    <path d="M110 109c-32 24-58 20-67 0-10-24 20-35 67 0z"/>
  </g>
  <circle cx="110" cy="109" r="14" fill="#ffb31b" stroke="#163646" stroke-width="3"/>
  <text x="110" y="205" text-anchor="middle" fill="#163646" font-family="Georgia, serif" font-size="20" font-weight="bold" letter-spacing="3">ALOHA FEST</text>
</svg>
