<svg width="26.4mm" height="26.4mm" version="1.1" viewBox="0 0 26.4 26.4" xmlns="http://www.w3.org/2000/svg"><path d="M1.6,1.6H2.4V2.4H1.6zM2.4,1.6H3.2V2.4H2.4zM3.2,1.6H4V2.4H3.2zM4,1.6H4.8V2.4H4zM4.8,1.6H5.6V2.4H4.8zM5.6,1.6H6.4V2.4H5.6zM6.4,1.6H7.2V2.4H6.4zM8.8,1.6H9.6V2.4H8.8zM9.6,1.6H10.4V2.4H9.6zM12.8,1.6H13.6V2.4H12.8zM16,1.6H16.8V2.4H16zM16.8,1.6H17.6V2.4H16.8zM17.6,1.6H18.4V2.4H17.6zM19.2,1.6H20V2.4H19.2zM20,1.6H20.8V2.4H20zM20.8,1.6H21.6V2.4H20.8zM21.6,1.6H22.4V2.4H21.6zM22.4,1.6H23.2V2.4H22.4zM23.2,1.6H24V2.4H23.2zM24,1.6H24.8V2.4H24zM1.6,2.4H2.4V3.2H1.6zM6.4,2.4H7.2V3.2H6.4zM8,2.4H8.8V3.2H8zM8.8,2.4H9.6V3.2H8.8zM10.4,2.4H11.2V3.2H10.4zM11.2,2.4H12V3.2H11.2zM12,2.4H12.8V3.2H12zM15.2,2.4H16V3.2H15.2zM16.8,2.4H17.6V3.2H16.8zM19.2,2.4H20V3.2H19.2zM24,2.4H24.8V3.2H24zM1.6,3.2H2.4V4H1.6zM3.2,3.2H4V4H3.2zM4,3.2H4.8V4H4zM4.8,3.2H5.6V4H4.8zM6.4,3.2H7.2V4H6.4zM8.8,3.2H9.6V4H8.8zM13.6,3.2H14.4V4H13.6zM16,3.2H16.8V4H16zM19.2,3.2H20V4H19.2zM20.8,3.2H21.6V4H20.8zM21.6,3.2H22.4V4H21.6zM22.4,3.2H23.2V4H22.4zM24,3.2H24.8V4H24zM1.6,4H2.4V4.8H1.6zM3.2,4H4V4.8H3.2zM4,4H4.8V4.8H4zM4.8,4H5.6V4.8H4.8zM6.4,4H7.2V4.8H6.4zM8.8,4H9.6V4.8H8.8zM9.6,4H10.4V4.8H9.6zM12,4H12.8V4.8H12zM15.2,4H16V4.8H15.2zM16,4H16.8V4.8H16zM16.8,4H17.6V4.8H16.8zM17.6,4H18.4V4.8H17.6zM19.2,4H20V4.8H19.2zM20.8,4H21.6V4.8H20.8zM21.6,4H22.4V4.8H21.6zM22.4,4H23.2V4.8H22.4zM24,4H24.8V4.8H24zM1.6,4.8H2.4V5.6H1.6zM3.2,4.8H4V5.6H3.2zM4,4.8H4.8V5.6H4zM4.8,4.8H5.6V5.6H4.8zM6.4,4.8H7.2V5.6H6.4zM8,4.8H8.8V5.6H8zM10.4,4.8H11.2V5.6H10.4zM11.2,4.8H12V5.6H11.2zM12,4.8H12.8V5.6H12zM14.4,4.8H15.2V5.6H14.4zM15.2,4.8H16V5.6H15.2zM16,4.8H16.8V5.6H16zM17.6,4.8H18.4V5.6H17.6zM19.2,4.8H20V5.6H19.2zM20.8,4.8H21.6V5.6H20.8zM21.6,4.8H22.4V5.6H21.6zM22.4,4.8H23.2V5.6H22.4zM24,4.8H24.8V5.6H24zM1.6,5.6H2.4V6.4H1.6zM6.4,5.6H7.2V6.4H6.4zM8.8,5.6H9.6V6.4H8.8zM9.6,5.6H10.4V6.4H9.6zM10.4,5.6H11.2V6.4H10.4zM11.2,5.6H12V6.4H11.2zM12.8,5.6H13.6V6.4H12.8zM13.6,5.6H14.4V6.4H13.6zM16,5.6H16.8V6.4H16zM19.2,5.6H20V6.4H19.2zM24,5.6H24.8V6.4H24zM1.6,6.4H2.4V7.2H1.6zM2.4,6.4H3.2V7.2H2.4zM3.2,6.4H4V7.2H3.2zM4,6.4H4.8V7.2H4zM4.8,6.4H5.6V7.2H4.8zM5.6,6.4H6.4V7.2H5.6zM6.4,6.4H7.2V7.2H6.4zM8,6.4H8.8V7.2H8zM9.6,6.4H10.4V7.2H9.6zM11.2,6.4H12V7.2H11.2zM12.8,6.4H13.6V7.2H12.8zM14.4,6.4H15.2V7.2H14.4zM16,6.4H16.8V7.2H16zM17.6,6.4H18.4V7.2H17.6zM19.2,6.4H20V7.2H19.2zM20,6.4H20.8V7.2H20zM20.8,6.4H21.6V7.2H20.8zM21.6,6.4H22.4V7.2H21.6zM22.4,6.4H23.2V7.2H22.4zM23.2,6.4H24V7.2H23.2zM24,6.4H24.8V7.2H24zM11.2,7.2H12V8H11.2zM13.6,7.2H14.4V8H13.6zM14.4,7.2H15.2V8H14.4zM15.2,7.2H16V8H15.2zM16.8,7.2H17.6V8H16.8zM1.6,8H2.4V8.8H1.6zM3.2,8H4V8.8H3.2zM4.8,8H5.6V8.8H4.8zM6.4,8H7.2V8.8H6.4zM8.8,8H9.6V8.8H8.8zM17.6,8H18.4V8.8H17.6zM20.8,8H21.6V8.8H20.8zM23.2,8H24V8.8H23.2zM1.6,8.8H2.4V9.6H1.6zM2.4,8.8H3.2V9.6H2.4zM3.2,8.8H4V9.6H3.2zM7.2,8.8H8V9.6H7.2zM8.8,8.8H9.6V9.6H8.8zM9.6,8.8H10.4V9.6H9.6zM11.2,8.8H12V9.6H11.2zM12,8.8H12.8V9.6H12zM13.6,8.8H14.4V9.6H13.6zM14.4,8.8H15.2V9.6H14.4zM16.8,8.8H17.6V9.6H16.8zM21.6,8.8H22.4V9.6H21.6zM22.4,8.8H23.2V9.6H22.4zM23.2,8.8H24V9.6H23.2zM2.4,9.6H3.2V10.4H2.4zM4.8,9.6H5.6V10.4H4.8zM5.6,9.6H6.4V10.4H5.6zM6.4,9.6H7.2V10.4H6.4zM10.4,9.6H11.2V10.4H10.4zM11.2,9.6H12V10.4H11.2zM12.8,9.6H13.6V10.4H12.8zM15.2,9.6H16V10.4H15.2zM16.8,9.6H17.6V10.4H16.8zM17.6,9.6H18.4V10.4H17.6zM19.2,9.6H20V10.4H19.2zM20.8,9.6H21.6V10.4H20.8zM22.4,9.6H23.2V10.4H22.4zM23.2,9.6H24V10.4H23.2zM24,9.6H24.8V10.4H24zM1.6,10.4H2.4V11.2H1.6zM2.4,10.4H3.2V11.2H2.4zM3.2,10.4H4V11.2H3.2zM7.2,10.4H8V11.2H7.2zM8.8,10.4H9.6V11.2H8.8zM11.2,10.4H12V11.2H11.2zM12,10.4H12.8V11.2H12zM12.8,10.4H13.6V11.2H12.8zM13.6,10.4H14.4V11.2H13.6zM14.4,10.4H15.2V11.2H14.4zM15.2,10.4H16V11.2H15.2zM16,10.4H16.8V11.2H16zM18.4,10.4H19.2V11.2H18.4zM19.2,10.4H20V11.2H19.2zM20,10.4H20.8V11.2H20zM24,10.4H24.8V11.2H24zM6.4,11.2H7.2V12H6.4zM9.6,11.2H10.4V12H9.6zM11.2,11.2H12V12H11.2zM12.8,11.2H13.6V12H12.8zM14.4,11.2H15.2V12H14.4zM17.6,11.2H18.4V12H17.6zM18.4,11.2H19.2V12H18.4zM19.2,11.2H20V12H19.2zM20,11.2H20.8V12H20zM20.8,11.2H21.6V12H20.8zM22.4,11.2H23.2V12H22.4zM23.2,11.2H24V12H23.2zM1.6,12H2.4V12.8H1.6zM2.4,12H3.2V12.8H2.4zM4,12H4.8V12.8H4zM5.6,12H6.4V12.8H5.6zM7.2,12H8V12.8H7.2zM8,12H8.8V12.8H8zM9.6,12H10.4V12.8H9.6zM12.8,12H13.6V12.8H12.8zM13.6,12H14.4V12.8H13.6zM14.4,12H15.2V12.8H14.4zM15.2,12H16V12.8H15.2zM16,12H16.8V12.8H16zM17.6,12H18.4V12.8H17.6zM18.4,12H19.2V12.8H18.4zM21.6,12H22.4V12.8H21.6zM23.2,12H24V12.8H23.2zM1.6,12.8H2.4V13.6H1.6zM2.4,12.8H3.2V13.6H2.4zM3.2,12.8H4V13.6H3.2zM5.6,12.8H6.4V13.6H5.6zM6.4,12.8H7.2V13.6H6.4zM8,12.8H8.8V13.6H8zM9.6,12.8H10.4V13.6H9.6zM10.4,12.8H11.2V13.6H10.4zM12,12.8H12.8V13.6H12zM16.8,12.8H17.6V13.6H16.8zM17.6,12.8H18.4V13.6H17.6zM18.4,12.8H19.2V13.6H18.4zM19.2,12.8H20V13.6H19.2zM20.8,12.8H21.6V13.6H20.8zM21.6,12.8H22.4V13.6H21.6zM22.4,12.8H23.2V13.6H22.4zM23.2,12.8H24V13.6H23.2zM24,12.8H24.8V13.6H24zM1.6,13.6H2.4V14.4H1.6zM4.8,13.6H5.6V14.4H4.8zM8,13.6H8.8V14.4H8zM8.8,13.6H9.6V14.4H8.8zM10.4,13.6H11.2V14.4H10.4zM11.2,13.6H12V14.4H11.2zM13.6,13.6H14.4V14.4H13.6zM15.2,13.6H16V14.4H15.2zM16.8,13.6H17.6V14.4H16.8zM20,13.6H20.8V14.4H20zM21.6,13.6H22.4V14.4H21.6zM23.2,13.6H24V14.4H23.2zM1.6,14.4H2.4V15.2H1.6zM2.4,14.4H3.2V15.2H2.4zM3.2,14.4H4V15.2H3.2zM6.4,14.4H7.2V15.2H6.4zM8.8,14.4H9.6V15.2H8.8zM9.6,14.4H10.4V15.2H9.6zM13.6,14.4H14.4V15.2H13.6zM15.2,14.4H16V15.2H15.2zM16,14.4H16.8V15.2H16zM17.6,14.4H18.4V15.2H17.6zM18.4,14.4H19.2V15.2H18.4zM19.2,14.4H20V15.2H19.2zM23.2,14.4H24V15.2H23.2zM2.4,15.2H3.2V16H2.4zM3.2,15.2H4V16H3.2zM7.2,15.2H8V16H7.2zM8,15.2H8.8V16H8zM9.6,15.2H10.4V16H9.6zM10.4,15.2H11.2V16H10.4zM12,15.2H12.8V16H12zM13.6,15.2H14.4V16H13.6zM14.4,15.2H15.2V16H14.4zM15.2,15.2H16V16H15.2zM20,15.2H20.8V16H20zM21.6,15.2H22.4V16H21.6zM23.2,15.2H24V16H23.2zM1.6,16H2.4V16.8H1.6zM4,16H4.8V16.8H4zM4.8,16H5.6V16.8H4.8zM5.6,16H6.4V16.8H5.6zM6.4,16H7.2V16.8H6.4zM8.8,16H9.6V16.8H8.8zM9.6,16H10.4V16.8H9.6zM12.8,16H13.6V16.8H12.8zM14.4,16H15.2V16.8H14.4zM16,16H16.8V16.8H16zM18.4,16H19.2V16.8H18.4zM19.2,16H20V16.8H19.2zM20.8,16H21.6V16.8H20.8zM22.4,16H23.2V16.8H22.4zM23.2,16H24V16.8H23.2zM24,16H24.8V16.8H24zM2.4,16.8H3.2V17.6H2.4zM3.2,16.8H4V17.6H3.2zM5.6,16.8H6.4V17.6H5.6zM7.2,16.8H8V17.6H7.2zM8.8,16.8H9.6V17.6H8.8zM9.6,16.8H10.4V17.6H9.6zM12,16.8H12.8V17.6H12zM12.8,16.8H13.6V17.6H12.8zM13.6,16.8H14.4V17.6H13.6zM15.2,16.8H16V17.6H15.2zM17.6,16.8H18.4V17.6H17.6zM18.4,16.8H19.2V17.6H18.4zM19.2,16.8H20V17.6H19.2zM1.6,17.6H2.4V18.4H1.6zM5.6,17.6H6.4V18.4H5.6zM6.4,17.6H7.2V18.4H6.4zM8,17.6H8.8V18.4H8zM8.8,17.6H9.6V18.4H8.8zM9.6,17.6H10.4V18.4H9.6zM10.4,17.6H11.2V18.4H10.4zM11.2,17.6H12V18.4H11.2zM12.8,17.6H13.6V18.4H12.8zM14.4,17.6H15.2V18.4H14.4zM17.6,17.6H18.4V18.4H17.6zM18.4,17.6H19.2V18.4H18.4zM19.2,17.6H20V18.4H19.2zM20,17.6H20.8V18.4H20zM20.8,17.6H21.6V18.4H20.8zM22.4,17.6H23.2V18.4H22.4zM24,17.6H24.8V18.4H24zM8,18.4H8.8V19.2H8zM8.8,18.4H9.6V19.2H8.8zM9.6,18.4H10.4V19.2H9.6zM10.4,18.4H11.2V19.2H10.4zM11.2,18.4H12V19.2H11.2zM12.8,18.4H13.6V19.2H12.8zM17.6,18.4H18.4V19.2H17.6zM20.8,18.4H21.6V19.2H20.8zM23.2,18.4H24V19.2H23.2zM1.6,19.2H2.4V20H1.6zM2.4,19.2H3.2V20H2.4zM3.2,19.2H4V20H3.2zM4,19.2H4.8V20H4zM4.8,19.2H5.6V20H4.8zM5.6,19.2H6.4V20H5.6zM6.4,19.2H7.2V20H6.4zM9.6,19.2H10.4V20H9.6zM12,19.2H12.8V20H12zM17.6,19.2H18.4V20H17.6zM19.2,19.2H20V20H19.2zM20.8,19.2H21.6V20H20.8zM23.2,19.2H24V20H23.2zM24,19.2H24.8V20H24zM1.6,20H2.4V20.8H1.6zM6.4,20H7.2V20.8H6.4zM11.2,20H12V20.8H11.2zM13.6,20H14.4V20.8H13.6zM14.4,20H15.2V20.8H14.4zM15.2,20H16V20.8H15.2zM17.6,20H18.4V20.8H17.6zM20.8,20H21.6V20.8H20.8zM24,20H24.8V20.8H24zM1.6,20.8H2.4V21.6H1.6zM3.2,20.8H4V21.6H3.2zM4,20.8H4.8V21.6H4zM4.8,20.8H5.6V21.6H4.8zM6.4,20.8H7.2V21.6H6.4zM8,20.8H8.8V21.6H8zM9.6,20.8H10.4V21.6H9.6zM11.2,20.8H12V21.6H11.2zM14.4,20.8H15.2V21.6H14.4zM17.6,20.8H18.4V21.6H17.6zM18.4,20.8H19.2V21.6H18.4zM19.2,20.8H20V21.6H19.2zM20,20.8H20.8V21.6H20zM20.8,20.8H21.6V21.6H20.8zM22.4,20.8H23.2V21.6H22.4zM24,20.8H24.8V21.6H24zM1.6,21.6H2.4V22.4H1.6zM3.2,21.6H4V22.4H3.2zM4,21.6H4.8V22.4H4zM4.8,21.6H5.6V22.4H4.8zM6.4,21.6H7.2V22.4H6.4zM9.6,21.6H10.4V22.4H9.6zM11.2,21.6H12V22.4H11.2zM13.6,21.6H14.4V22.4H13.6zM14.4,21.6H15.2V22.4H14.4zM23.2,21.6H24V22.4H23.2zM24,21.6H24.8V22.4H24zM1.6,22.4H2.4V23.2H1.6zM3.2,22.4H4V23.2H3.2zM4,22.4H4.8V23.2H4zM4.8,22.4H5.6V23.2H4.8zM6.4,22.4H7.2V23.2H6.4zM8,22.4H8.8V23.2H8zM8.8,22.4H9.6V23.2H8.8zM11.2,22.4H12V23.2H11.2zM12,22.4H12.8V23.2H12zM14.4,22.4H15.2V23.2H14.4zM16,22.4H16.8V23.2H16zM16.8,22.4H17.6V23.2H16.8zM17.6,22.4H18.4V23.2H17.6zM19.2,22.4H20V23.2H19.2zM20,22.4H20.8V23.2H20zM20.8,22.4H21.6V23.2H20.8zM21.6,22.4H22.4V23.2H21.6zM22.4,22.4H23.2V23.2H22.4zM24,22.4H24.8V23.2H24zM1.6,23.2H2.4V24H1.6zM6.4,23.2H7.2V24H6.4zM9.6,23.2H10.4V24H9.6zM11.2,23.2H12V24H11.2zM12,23.2H12.8V24H12zM14.4,23.2H15.2V24H14.4zM15.2,23.2H16V24H15.2zM16,23.2H16.8V24H16zM16.8,23.2H17.6V24H16.8zM18.4,23.2H19.2V24H18.4zM19.2,23.2H20V24H19.2zM20.8,23.2H21.6V24H20.8zM23.2,23.2H24V24H23.2zM1.6,24H2.4V24.8H1.6zM2.4,24H3.2V24.8H2.4zM3.2,24H4V24.8H3.2zM4,24H4.8V24.8H4zM4.8,24H5.6V24.8H4.8zM5.6,24H6.4V24.8H5.6zM6.4,24H7.2V24.8H6.4zM8,24H8.8V24.8H8zM9.6,24H10.4V24.8H9.6zM11.2,24H12V24.8H11.2zM12,24H12.8V24.8H12zM16.8,24H17.6V24.8H16.8zM17.6,24H18.4V24.8H17.6zM18.4,24H19.2V24.8H18.4zM19.2,24H20V24.8H19.2zM20.8,24H21.6V24.8H20.8zM21.6,24H22.4V24.8H21.6zM22.4,24H23.2V24.8H22.4zM23.2,24H24V24.8H23.2zM24,24H24.8V24.8H24z" id="qr-path" fill="#000000" fill-opacity="1" fill-rule="nonzero" stroke="none"/></svg>